<svg xmlns="http://www.w3.org/2000/svg" viewBox="0 0 448 512"><path d="M267.55 269l-3.55 3.57V336a40 40 0 0 1-80 0v-63.43l-3.55-3.57a80 80 0 1 0 87.1 0zM360 32H88a88.09 88.09 0 0 0-88 88v272a88.09 88.09 0 0 0 88 88h272a88.09 88.09 0 0 0 88-88V120a88.09 88.09 0 0 0-88-88zm40 360a40 40 0 0 1-40 40H88a40 40 0 0 1-40-40V120a40 40 0 0 1 40-40h272a40 40 0 0 1 40 40zM304 96a80 80 0 0 0-80 80 80 80 0 1 0-80 80 77.09 77.09 0 0 0 20.45-3l-48.73-48.73a40 40 0 1 1 56.56-56.56L224 199.43l51.72-51.71a40 40 0 1 1 56.56 56.56L283.55 253a77.09 77.09 0 0 0 20.45 3 80 80 0 0 0 0-160zm-80 256a16 16 0 0 0 16-16v-73.38l75.31-75.31a16 16 0 0 0-22.62-22.62L224 233.37l-68.69-68.68a16 16 0 0 0-22.62 22.62L208 262.62V336a16 16 0 0 0 16 16z"/></svg>