<svg xmlns="http://www.w3.org/2000/svg" viewBox="0 0 512 512"><path d="M476.62 270.31l-57.24-28.62A64 64 0 0 1 384 184.44C384 82.58 301.42 0 199.55 0h-15.1C82.58 0 0 82.58 0 184.44V480a32 32 0 0 0 32 32h448a32 32 0 0 0 32-32V327.55a64 64 0 0 0-35.38-57.24zM464 464H48v-80h40v24a16 16 0 0 0 16 16h16a16 16 0 0 0 16-16v-24h48v24a16 16 0 0 0 16 16h16a16 16 0 0 0 16-16v-24h48v24a16 16 0 0 0 16 16h16a16 16 0 0 0 16-16v-24h48v24a16 16 0 0 0 16 16h16a16 16 0 0 0 16-16v-24h40zm0-128H48V184.44C48 109.21 109.21 48 184.45 48h15.1C274.79 48 336 109.21 336 184.44a111.38 111.38 0 0 0 61.91 100.18l57.24 28.62a15.91 15.91 0 0 1 8.85 14.31z"/></svg>