<svg xmlns="http://www.w3.org/2000/svg" viewBox="0 0 448 512"><defs><style>.fa-secondary{opacity:.4}</style></defs><path d="M224 80.64c83.21-51.73 163.1-64.92 201.7-26.33S451.09 172.79 399.37 256a514.73 514.73 0 0 0-37.88-52.89c27.77-47.21 36.63-86.73 19.38-104-29.4-29.39-123.46 17-210.09 103.65a651.68 651.68 0 0 0-26.58 28.19 430.51 430.51 0 0 1-28.13-40.75c-2.73-4.52-5.16-8.79-7.34-12.82q8.65-9.45 17.93-18.74a584.93 584.93 0 0 1 44.46-40.16q3.21-2.61 6.44-5.16l.26-.2q9.81-7.73 19.66-14.78l.2-.14q3-2.13 6-4.2l1.23-.84c1.68-1.16 3.37-2.31 5-3.44l1.43-1c1.76-1.17 3.52-2.33 5.28-3.46l1-.64q3.17-1.99 6.38-3.98zM224 224a32 32 0 1 0 32 32 32 32 0 0 0-32-32zm53.22 85.22q-14 14-28.18 26.57a403.3 403.3 0 0 0 53 35.21c.17.1.34.18.51.27q9.45-8.65 18.74-17.93a582.54 582.54 0 0 0 40.15-44.45A466.42 466.42 0 0 0 324.83 256a625.1 625.1 0 0 1-47.61 53.22zm-106.1 84.28c-47.22 27.76-86.74 36.62-104 19.37s-8.39-56.77 19.37-104A516.23 516.23 0 0 1 48.64 256c-51.72 83.22-64.92 163.09-26.33 201.69S140.78 483.08 224 431.36a516.23 516.23 0 0 1-52.88-37.86z" class="fa-secondary"/><path d="M425.69 457.69c-53.76 53.76-187.64 7-299-104.35S-31.45 108.07 22.31 54.31C60.91 15.72 140.78 28.92 224 80.64a516.23 516.23 0 0 0-52.87 37.86c-47.22-27.76-86.74-36.62-104-19.37-29.39 29.4 17 123.46 103.65 210.09s180.69 133 210.09 103.65-17-123.46-103.65-210.09q-14-14-28.2-26.58a433.78 433.78 0 0 1 40.76-28.13c4.52-2.73 8.79-5.16 12.82-7.34q9.45 8.66 18.74 17.93c111.39 111.39 158.11 245.27 104.35 299.03z" class="fa-primary"/></svg>