<svg xmlns="http://www.w3.org/2000/svg" viewBox="0 0 512 512"><defs><style>.fa-secondary{opacity:.4}</style></defs><path d="M80 256H32V112a80 80 0 0 1 145.74-45.51 67.84 67.84 0 0 1 64.18 15.36 12 12 0 0 1 16.42.49l11.32 11.32a12 12 0 0 1 0 17l-95 95a12 12 0 0 1-17 0l-11.32-11.32a12 12 0 0 1-.49-16.43 68 68 0 0 1-6.83-83A32 32 0 0 0 80 112z" class="fa-secondary"/><path d="M512 280v16a24 24 0 0 1-24 24h-8v32a95.76 95.76 0 0 1-32 71.55V456a24 24 0 0 1-24 24h-16a24 24 0 0 1-24-24v-8H128v8a24 24 0 0 1-24 24H88a24 24 0 0 1-24-24v-32.45A95.76 95.76 0 0 1 32 352v-32h-8a24 24 0 0 1-24-24v-16a24 24 0 0 1 24-24h464a24 24 0 0 1 24 24z" class="fa-primary"/></svg>