<svg xmlns="http://www.w3.org/2000/svg" viewBox="0 0 512 512"><defs><style>.fa-secondary{opacity:.4}</style></defs><path d="M416 244v34l-128-46.39V384h-48V224L6.17 41.25a16 16 0 0 1-2.8-22.45l9.82-12.62a16 16 0 0 1 22.45-2.81L288 192z" class="fa-secondary"/><path d="M64 192a32 32 0 0 0-64 0c0 41.66 26.83 76.85 64 90.1V496a16 16 0 0 0 16 16h64a16 16 0 0 0 16-16V384h80V224H96a32 32 0 0 1-32-32zm224 192h32v112a16 16 0 0 0 16 16h64a16 16 0 0 0 16-16V277.55l-128-45.71zM496 96h-64l-7.16-14.31A32 32 0 0 0 396.22 64H342.6l-27.28-27.28C305.23 26.64 288 33.78 288 48v144l128 51.58V208h32a64 64 0 0 0 64-64v-32a16 16 0 0 0-16-16zm-112 48a16 16 0 1 1 16-16 16 16 0 0 1-16 16z" class="fa-primary"/></svg>