<svg xmlns="http://www.w3.org/2000/svg" viewBox="0 0 512 512"><defs><style>.fa-secondary{opacity:.4}</style></defs><path d="M416 64H96a32 32 0 0 0-32 32v161.62L227.91 376a47.89 47.89 0 0 0 56.21 0L448 257.62V96a32 32 0 0 0-32-32z" class="fa-secondary"/><path d="M248 319h16a8 8 0 0 0 8-8v-16.12c23.62-.63 42.67-20.54 42.67-45.07 0-20-13-37.81-31.58-43.39l-45-13.5c-5.16-1.55-8.77-6.78-8.77-12.73 0-7.27 5.3-13.19 11.8-13.19h28.11a24.14 24.14 0 0 1 12.82 3.72 8.19 8.19 0 0 0 10.13-.73l11.75-11.21a8 8 0 0 0-.57-12.14A57.29 57.29 0 0 0 272 135.29V119a8 8 0 0 0-8-8h-16a8 8 0 0 0-8 8v16.12c-23.62.63-42.67 20.55-42.67 45.07 0 20 13 37.81 31.58 43.39l45 13.5c5.16 1.55 8.77 6.78 8.77 12.73 0 7.27-5.3 13.19-11.8 13.19h-28.11a24 24 0 0 1-12.77-3.72 8.22 8.22 0 0 0-10.13.73l-11.75 11.21a8 8 0 0 0-.34 11.31 7.17 7.17 0 0 0 .91.83A57.13 57.13 0 0 0 240 294.71V311a8 8 0 0 0 8 8zm81.4-277.56C312.6 29.18 279.2-.35 256 0c-23.2-.35-56.59 29.17-73.41 41.44L152 64h208zM64 129c-23.88 17.69-42.67 31.65-45.61 34A48 48 0 0 0 0 200.72v10.65l64 46.24zm429.61 34c-2.94-2.3-21.73-16.26-45.61-33.93v128.54l64-46.24v-10.65A48 48 0 0 0 493.61 163zM256 417.13a79.83 79.83 0 0 1-46.86-15.19L0 250.86V464a48 48 0 0 0 48 48h416a48 48 0 0 0 48-48V250.86L302.86 401.94A80 80 0 0 1 256 417.13z" class="fa-primary"/></svg>