<svg xmlns="http://www.w3.org/2000/svg" viewBox="0 0 512 512"><defs><style>.fa-secondary{opacity:.4}</style></defs><path d="M448 96v161.62L284.12 376a47.89 47.89 0 0 1-56.21 0L64 257.62V96a32 32 0 0 1 32-32h320a32 32 0 0 1 32 32z" class="fa-secondary"/><path d="M336 224H176a16 16 0 0 0-16 16v16a16 16 0 0 0 16 16h160a16 16 0 0 0 16-16v-16a16 16 0 0 0-16-16zm16-64a16 16 0 0 0-16-16H176a16 16 0 0 0-16 16v16a16 16 0 0 0 16 16h160a16 16 0 0 0 16-16zM329.41 41.44C312.6 29.18 279.2-.35 256 0c-23.2-.35-56.59 29.17-73.41 41.44L152 64h208zM64 129c-23.88 17.69-42.67 31.65-45.61 34A48 48 0 0 0 0 200.72v10.65l64 46.24zm429.61 34c-2.94-2.3-21.73-16.26-45.61-33.93v128.54l64-46.24v-10.65A48 48 0 0 0 493.61 163zM256 417.13a79.83 79.83 0 0 1-46.86-15.19L0 250.86V464a48 48 0 0 0 48 48h416a48 48 0 0 0 48-48V250.86L302.86 401.94A80 80 0 0 1 256 417.13z" class="fa-primary"/></svg>