<svg xmlns="http://www.w3.org/2000/svg" viewBox="0 0 448 512"><defs><style>.fa-secondary{opacity:.4}</style></defs><path d="M248 352a24 24 0 0 1-48 0v-41.32a48 48 0 1 0 48 0zM128 112a48 48 0 0 0 0 96 47.36 47.36 0 0 0 12.27-1.79L111 177a24 24 0 0 1 34-34l29.24 29.24A47.36 47.36 0 0 0 176 160a48.05 48.05 0 0 0-48-48zm240-80H80a80.09 80.09 0 0 0-80 80v288a80.09 80.09 0 0 0 80 80h288a80.09 80.09 0 0 0 80-80V112a80.09 80.09 0 0 0-80-80zm-48 208a79.11 79.11 0 0 1-36.74-9.32L248 265.94v10.13c32.38 10.24 56 40.17 56 75.93a80 80 0 0 1-160 0c0-35.76 23.62-65.69 56-75.93v-10.13l-35.26-35.26A79.11 79.11 0 0 1 128 240a80 80 0 1 1 80-80 79.12 79.12 0 0 1-9.33 36.74L224 222.06l25.33-25.32A79.12 79.12 0 0 1 240 160a80 80 0 1 1 80 80zm0-128a48.05 48.05 0 0 0-48 48 47.36 47.36 0 0 0 1.79 12.27L303 143a24 24 0 0 1 34 34l-29.24 29.24A47.36 47.36 0 0 0 320 208a48 48 0 0 0 0-96z" class="fa-secondary"/><path d="M337 177l-89 89v86a24 24 0 0 1-48 0v-86.06l-89-89A24 24 0 0 1 145 143l79 79 79-79a24 24 0 0 1 34 34z" class="fa-primary"/></svg>