<svg xmlns="http://www.w3.org/2000/svg" viewBox="0 0 512 512"><defs><style>.fa-secondary{opacity:.4}</style></defs><path d="M511 145.31l-36.3 152.5a97 97 0 0 0-2.6 22.2v42a97 97 0 0 1-4 27.3l-26.2 88.3a47.91 47.91 0 0 1-46 34.4H179.17a47.91 47.91 0 0 1-32.9-13l-133.7-125.9a40 40 0 1 1 54.8-58.2l60.6 57v-79.4L89 120.91a40 40 0 0 1 78-17.8l34.8 152.8h9.8l-47.6-207a40 40 0 1 1 78-17.8L293.67 256h15.1l48.4-193.7a40 40 0 1 1 77.6 19.4L391.17 256h11.1l30.8-129.3a40 40 0 0 1 77.9 18.6z" class="fa-secondary"/></svg>