<svg xmlns="http://www.w3.org/2000/svg" viewBox="0 0 544 512"><defs><style>.fa-secondary{opacity:.4}</style></defs><path d="M210.69 285.7a8 8 0 0 1 11.36-10.7l30.39 20.66L264 7.67a8 8 0 0 1 16 0l11.53 287.93 30.35-20.6a8 8 0 0 1 11.38 10.71l-20.13 33.77 42.07 8.73a8 8 0 0 1 0 15.66l-42.07 8.72 20.11 33.73a8 8 0 0 1-1.34 9.92 8.24 8.24 0 0 1-10 .8l-27.17-18.47 2.27 63.31a123.4 123.4 0 0 1-22.07 1.95h-6.37a123.38 123.38 0 0 1-21.62-1.95l2.29-63.35L222.06 397a8.34 8.34 0 0 1-10-.75 8 8 0 0 1-1.39-9.94l20.13-33.77-42.07-8.72a8 8 0 0 1 0-15.66l42.07-8.73z" class="fa-secondary"/><path d="M543 224c.37 5.76 1 11.46 1 17.27a269.51 269.51 0 0 1-5.13 51.86L480 352h40c-42.63 94.17-137.64 160-248 160q-6.39 0-12.85-.29C155.15 506.94 65.27 442.23 24 352h39.93l-58.6-58.6A263 263 0 0 1 .22 254a272.2 272.2 0 0 1 .5-30h47.21L6.55 182.62a269.74 269.74 0 0 1 108-162.07 16 16 0 0 1 9.27-3 16.35 16.35 0 0 1 13.48 7.25 16 16 0 0 1 1.62 15.09 138.38 138.38 0 0 0-9.84 51.26c0 45.12 21 86.58 57.71 113.74a16.3 16.3 0 0 1 1.21 25.39c-26.55 24-41.17 56.5-41.17 91.58a123.26 123.26 0 0 0 19.76 67.06c22.25 34.48 60.92 54.83 102 54.9h6.37c48.67.09 93.33-28.39 112.38-73.18a119.78 119.78 0 0 0 7.22-23.28A123.5 123.5 0 0 0 356 230.3a16.33 16.33 0 0 1 1.21-25.43c36.66-27.16 57.69-68.61 57.69-113.73a138.21 138.21 0 0 0-9.9-51.31 16 16 0 0 1 1.61-15.09 16.35 16.35 0 0 1 13.49-7.24 16 16 0 0 1 9.25 3 271.22 271.22 0 0 1 107.9 162.26L496 224z" class="fa-primary"/></svg>