<svg xmlns="http://www.w3.org/2000/svg" viewBox="0 0 512 512"><defs><style>.fa-secondary{opacity:.4}</style></defs><path d="M512 384v96a32 32 0 0 1-32 32H32a32 32 0 0 1-32-32v-96h48v80h416v-80z" class="fa-secondary"/><path d="M512 327.55V384h-96v40a8 8 0 0 1-8 8h-16a8 8 0 0 1-8-8v-40h-32v40a8 8 0 0 1-8 8h-16a8 8 0 0 1-8-8v-40h-48v40a8 8 0 0 1-8 8h-16a8 8 0 0 1-8-8v-40h-48v40a8 8 0 0 1-8 8h-16a8 8 0 0 1-8-8v-40h-32v40a8 8 0 0 1-8 8h-16a8 8 0 0 1-8-8v-40H0V184.45A184.45 184.45 0 0 1 184.45 0h15.1A184.45 184.45 0 0 1 384 184.45a64 64 0 0 0 35.38 57.24l57.24 28.62A64 64 0 0 1 512 327.55z" class="fa-primary"/></svg>