<svg xmlns="http://www.w3.org/2000/svg" viewBox="0 0 640 512"><defs><style>.fa-secondary{opacity:.4}</style></defs><path d="M0 256v128a32 32 0 0 0 32 32h32V224H32a32 32 0 0 0-32 32zm608-32h-32v192h32a32 32 0 0 0 32-32V256a32 32 0 0 0-32-32zM192 416h64v-32h-64zm192 0h64v-32h-64zm-96 0h64v-32h-64z" class="fa-secondary"/><path d="M464 96H352V32a32 32 0 0 0-64 0v64H176a80 80 0 0 0-80 80v272a64.06 64.06 0 0 0 64 64h320a64.06 64.06 0 0 0 64-64V176a80 80 0 0 0-80-80zM256 416h-64v-32h64zm-32-120a40 40 0 1 1 40-40 40 40 0 0 1-40 40zm128 120h-64v-32h64zm96 0h-64v-32h64zm-32-120a40 40 0 1 1 40-40 40 40 0 0 1-40 40z" class="fa-primary"/></svg>