<svg xmlns="http://www.w3.org/2000/svg" viewBox="0 0 512 512"><defs><style>.fa-secondary{opacity:.4}</style></defs><path d="M383.85 311.19v106a47.92 47.92 0 0 1-26.5 42.9l-98.7 49.39A24 24 0 0 1 224 488V384.16l133.12-59.42q13.68-6.12 26.73-13.55zM187.18 154.6q6.06-13.6 13.41-26.6H94.82A48 48 0 0 0 52 154.49l-49.47 98.8A24 24 0 0 0 24 288h103.79z" class="fa-secondary"/><path d="M505 19.1a15.9 15.9 0 0 0-12.2-12.2C460.6 0 435.41 0 410.31 0c-75.56 0-129 29.59-170.3 74a293 293 0 0 0-52.83 80.59L127.79 288l-22.47 22.47a32 32 0 0 0 0 45.25l50.9 50.91a32 32 0 0 0 45.25 0L224 384.16l133.12-59.42a293.28 293.28 0 0 0 80.59-53c44.45-41.4 74.19-94.85 74.19-170.08.1-25.16.1-50.36-6.9-82.56zM384 168a40 40 0 1 1 40-40 40 40 0 0 1-40 40z" class="fa-primary"/></svg>