<svg xmlns="http://www.w3.org/2000/svg" viewBox="0 0 512 512"><defs><style>.fa-secondary{opacity:.4}</style></defs><path d="M224 256.15a32 32 0 0 0-32 32c0 2.8.9 5.2 1.6 7.8l-27.4 27.4L188.8 346l27.4-27.4c2.6.7 5 1.6 7.8 1.6a32 32 0 0 0 0-64zM511.9 303C503.4 139.85 372.2 8.65 209 0a16.08 16.08 0 0 0-17 15.2v32.43a15.85 15.85 0 0 0 15 15.9c129.4 7 233.4 112 240.9 241.5a16 16 0 0 0 15.9 15h32.1a16.12 16.12 0 0 0 16-16.18c.03-.27.02-.55 0-.85zM209.3 96a16.12 16.12 0 0 0-17.25 14.91c0 .4-.05.79-.05 1.19v32.1a15.94 15.94 0 0 0 14.8 15.9c76.8 6.3 138 68.2 144.9 145.2a16.08 16.08 0 0 0 15.9 14.7h32.2a16.19 16.19 0 0 0 16.14-16.25v-1C407.5 192.65 319.4 104.55 209.3 96z" class="fa-secondary"/><path d="M302.4 487.55c-77.7 41.8-176.7 29.9-242.3-35.7s-77.5-164.5-35.7-242.3c4.9-9.1 17.7-10.3 25-3l256 256c7.4 7.3 6.2 20.1-3 25z" class="fa-primary"/></svg>