<svg xmlns="http://www.w3.org/2000/svg" viewBox="0 0 512 512"><defs><style>.fa-secondary{opacity:.4}</style></defs><path d="M111.93 377.4l-17.8 17.8c-2.6-.7-5-1.6-7.8-1.6a32 32 0 1 0 32 32c0-2.8-.9-5.2-1.6-7.8l17.8-17.8zm390.79-112.31l-.09-.09-80.38-80.42-33.95 34-107.8 107.8 80.35 80.35a31.87 31.87 0 0 0 45 0l96.7-96.7a31.78 31.78 0 0 0 .17-44.94zM247 9.3A32 32 0 0 0 224.43 0a31.61 31.61 0 0 0-22.5 9.3l-96.7 96.7a32 32 0 0 0 0 45.1l80.33 80.33 141.7-141.84z" class="fa-secondary"/><path d="M470.13 136.8l-199.5 199.45a190.46 190.46 0 0 1-5.4 168.45c-4.5 8.5-16.4 9.6-23.2 2.8L4.43 270c-6.8-6.8-5.7-18.59 2.8-23.19a190.6 190.6 0 0 1 168.5-5.4l199.4-199.59a33.64 33.64 0 0 1 47.5 0l47.5 47.49a33.61 33.61 0 0 1 0 47.49z" class="fa-primary"/></svg>