<svg xmlns="http://www.w3.org/2000/svg" viewBox="0 0 448 512"><defs><style>.fa-secondary{opacity:.4}</style></defs><path d="M406.2 272a16 16 0 0 1-16 16h-82.34c-22.51 19.68-51.62 32-83.86 32s-61.35-12.32-83.86-32H57.78a16 16 0 0 1-14.28-23.18c15.23-29.82 31.28-62.23 42.17-95.54.14-.43.26-.85.4-1.28H144v24a80 80 0 0 0 160 0v-24h58c.14.43.26.85.4 1.28 10.87 33.31 26.92 65.69 42.15 95.54a15.88 15.88 0 0 1 1.65 7.18z" class="fa-secondary"/><path d="M319.41 320L224 415.39 128.59 320C57.1 323.1 0 381.6 0 453.79A58.21 58.21 0 0 0 58.21 512h331.58A58.21 58.21 0 0 0 448 453.79C448 381.6 390.9 323.1 319.41 320zM352 97.2V48L224 0 96 48v49.2a269.12 269.12 0 0 1-2.66 38.8h261.33A267.71 267.71 0 0 1 352 97.2zm-88-8.87a5 5 0 0 1-5 5h-21.67V115a5 5 0 0 1-5 5h-16.66a5 5 0 0 1-5-5V93.33H189a5 5 0 0 1-5-5V71.67a5 5 0 0 1 5-5h21.67V45a5 5 0 0 1 5-5h16.66a5 5 0 0 1 5 5v21.67H259a5 5 0 0 1 5 5z" class="fa-primary"/></svg>