<svg xmlns="http://www.w3.org/2000/svg" viewBox="0 0 448 512"><path d="M273.93 274l-1.93 1.88V336a48 48 0 0 1-96 0v-60.12l-1.93-1.88C155.88 288.61 144 310.81 144 336a80 80 0 0 0 160 0c0-25.19-11.88-47.39-30.07-62zM224 352a16 16 0 0 0 16-16v-73.38l75.31-75.31a16 16 0 0 0-22.62-22.62L224 233.38l-68.69-68.69a16 16 0 0 0-22.62 22.62L208 262.62V336a16 16 0 0 0 16 16zM368 32H80a80.09 80.09 0 0 0-80 80v288a80.09 80.09 0 0 0 80 80h288a80.09 80.09 0 0 0 80-80V112a80.09 80.09 0 0 0-80-80zm48 368a48.05 48.05 0 0 1-48 48H80a48.05 48.05 0 0 1-48-48V112a48.05 48.05 0 0 1 48-48h288a48.05 48.05 0 0 1 48 48zM304 96a80 80 0 0 0-80 80 80 80 0 1 0-80 80 76.16 76.16 0 0 0 11.17-1l-45.11-45.1a48 48 0 0 1 67.88-67.88l46.06 46.1 46.06-46.06a48 48 0 0 1 67.88 67.88L292.83 255a76.16 76.16 0 0 0 11.17 1 80 80 0 0 0 0-160z"/></svg>