<svg xmlns="http://www.w3.org/2000/svg" viewBox="0 0 448 512"><path d="M368 32H80a80.09 80.09 0 0 0-80 80v288a80.09 80.09 0 0 0 80 80h288a80.09 80.09 0 0 0 80-80V112a80.09 80.09 0 0 0-80-80zM116.69 171.31a16 16 0 0 1 22.62-22.62L224 233.37l84.69-84.68a16 16 0 0 1 22.62 22.62L240 262.62V352a16 16 0 0 1-32 0v-89.38zM128 240a80 80 0 1 1 80-80 78.66 78.66 0 0 1-1.11 11l-44.95-45a48 48 0 0 0-67.88 67.88l45 44.95A78.66 78.66 0 0 1 128 240zm96 192a79.76 79.76 0 0 1-48-143.64V352a48 48 0 0 0 96 0v-63.64A79.76 79.76 0 0 1 224 432zm96-192a78.66 78.66 0 0 1-11-1.11l45-44.95a48 48 0 0 0-67.88-67.88l-44.95 45A78.66 78.66 0 0 1 240 160a80 80 0 1 1 80 80z"/></svg>